<?xml version="1.0" standalone="no"?>
<!DOCTYPE svg PUBLIC "-//W3C//DTD SVG 20010904//EN"
 "http://www.w3.org/TR/2001/REC-SVG-20010904/DTD/svg10.dtd">
<svg version="1.0" xmlns="http://www.w3.org/2000/svg"
 width="157.000000pt" height="41.000000pt" viewBox="0 0 157.000000 41.000000"
 preserveAspectRatio="xMidYMid meet">

<g transform="translate(0.000000,41.000000) scale(0.100000,-0.100000)"
fill="#000000" stroke="none">
<path d="M114 381 c-81 -37 -126 -132 -105 -218 24 -94 97 -153 191 -153 127
0 220 118 190 239 -31 124 -159 185 -276 132z m166 -77 c0 -35 -40 -71 -86
-79 -59 -10 -64 -13 -64 -37 0 -19 -2 -20 -10 -8 -27 42 17 110 72 110 37 0
68 16 68 36 0 8 5 12 10 9 6 -3 10 -17 10 -31z m10 -120 c0 -33 -47 -74 -84
-74 -34 0 -61 -15 -69 -40 -8 -25 -20 16 -13 45 8 32 42 54 97 63 36 6 45 12
47 31 3 19 6 21 13 10 5 -8 9 -24 9 -35z"/>
<path d="M727 262 c-20 -22 -23 -92 -5 -110 21 -21 66 -14 84 13 42 64 -30
152 -79 97z m57 -18 c20 -51 -8 -110 -39 -84 -18 15 -20 71 -3 88 17 17 35 15
42 -4z"/>
<path d="M1091 261 c-23 -23 -28 -70 -11 -102 8 -14 21 -19 50 -19 23 0 40 5
40 11 0 6 -8 9 -19 6 -30 -8 -51 11 -51 47 0 39 21 61 51 53 13 -3 19 -1 16 6
-7 21 -54 20 -76 -2z"/>
<path d="M480 206 c0 -37 4 -66 10 -66 6 0 10 11 10 25 0 20 5 25 24 25 30 0
49 22 44 52 -2 19 -10 23 -45 26 l-43 3 0 -65z m58 42 c14 -14 -2 -48 -23 -48
-10 0 -15 10 -15 30 0 31 17 39 38 18z"/>
<path d="M600 206 c0 -37 4 -66 10 -66 6 0 10 14 10 30 0 17 5 30 11 30 5 0
15 -13 20 -30 6 -16 18 -30 26 -30 11 0 13 5 7 18 -4 9 -8 37 -8 62 -1 45 -1
45 -38 48 l-38 3 0 -65z m55 44 c8 -13 -14 -42 -26 -34 -5 3 -9 14 -9 25 0 20
24 26 35 9z"/>
<path d="M863 263 c27 -4 28 -6 25 -56 -3 -47 -5 -52 -25 -50 -13 2 -23 -2
-23 -8 0 -6 14 -9 33 -7 32 3 32 3 35 66 l3 62 -38 -1 c-31 -2 -33 -3 -10 -6z"/>
<path d="M960 205 l0 -65 43 1 c38 1 39 2 12 8 -21 4 -31 13 -33 29 -3 19 1
22 27 22 17 0 31 5 31 10 0 6 -14 10 -31 10 -41 0 -36 32 6 41 27 6 26 7 -12
8 l-43 1 0 -65z"/>
<path d="M1208 263 c20 -4 22 -10 22 -64 0 -33 4 -59 10 -59 6 0 10 26 10 59
0 54 2 60 23 64 12 2 -3 4 -33 4 -30 0 -45 -2 -32 -4z"/>
<path d="M1440 205 l0 -65 43 1 c38 1 39 2 12 8 -21 4 -31 13 -33 29 -3 19 1
22 27 22 17 0 31 5 31 10 0 6 -14 10 -31 10 -41 0 -36 32 6 41 27 6 26 7 -12
8 l-43 1 0 -65z"/>
<path d="M1348 193 c12 -2 30 -2 40 0 9 3 -1 5 -23 4 -22 0 -30 -2 -17 -4z"/>
</g>
</svg>
