<?xml version="1.0" standalone="no"?>
<!DOCTYPE svg PUBLIC "-//W3C//DTD SVG 20010904//EN"
 "http://www.w3.org/TR/2001/REC-SVG-20010904/DTD/svg10.dtd">
<svg version="1.0" xmlns="http://www.w3.org/2000/svg"
 width="157.000000pt" height="55.000000pt" viewBox="0 0 157.000000 55.000000"
 preserveAspectRatio="xMidYMid meet">

<g transform="translate(0.000000,55.000000) scale(0.100000,-0.100000)"
fill="#000000" stroke="none">
<path d="M252 380 c-9 -14 -23 -20 -50 -20 -39 0 -72 -24 -85 -62 -8 -21 9
-34 17 -13 3 8 17 15 31 15 44 0 94 26 101 54 9 35 1 50 -14 26z"/>
<path d="M268 268 c-4 -10 -18 -18 -31 -18 -64 0 -107 -33 -107 -82 l0 -22 16
22 c11 16 25 22 53 22 45 0 85 35 79 72 -3 19 -4 20 -10 6z"/>
</g>
</svg>
